<svg width="128" height="30" viewBox="0 0 128 30" fill="none" xmlns="http://www.w3.org/2000/svg">
<path fill-rule="evenodd" clip-rule="evenodd" d="M75.7124 8.51587C75.1024 8.79191 74.7214 9.41105 74.75 10.08L74.77 10.09C74.7752 10.5126 74.9495 10.9155 75.2539 11.2086C75.5583 11.5018 75.9675 11.6607 76.39 11.65C77.0596 11.6494 77.6615 11.2418 77.9107 10.6204C78.1599 9.99889 78.0063 9.28836 77.5226 8.82534C77.0389 8.36233 76.3224 8.23982 75.7124 8.51587ZM39.72 9.26H36.51V22.26H39.72V9.26ZM46 12.22C43 12.22 41 14.15 41 17.37C41 20.66 42.93 22.54 46 22.54C49.07 22.54 51 20.59 51 17.37C51 14.15 49 12.22 46 12.22ZM47.82 17.37C47.82 15.6 47.13 14.56 46.03 14.56C44.93 14.56 44.25 15.56 44.25 17.37C44.25 19.18 44.93 20.17 46.03 20.17C47.13 20.17 47.84 19.18 47.84 17.38L47.82 17.37ZM55.38 22.93H52.28L52.3 22.94C52.48 24.73 54.26 26 57.04 26.01C60.1 26.01 62.18 24.54 62.18 22.19V12.45H59V14.0628C58.457 12.9758 57.3169 12.3044 56.09 12.37C53.58 12.37 52.09 14.29 52.09 17.37C52.09 20.45 53.65 22.24 56 22.24C57.2578 22.3322 58.4432 21.6458 58.99 20.511V22.29C58.99 23.27 58.35 23.93 57.12 23.93C56.3814 24.0247 55.67 23.6159 55.38 22.93ZM59 17.37C59 15.8 58.28 14.81 57.14 14.81C56 14.81 55.3 15.81 55.3 17.37C55.3 18.93 55.99 19.85 57.14 19.85C58.29 19.85 59 19 59 17.37ZM68.45 12.22C65.45 12.22 63.45 14.15 63.45 17.37H63.47C63.47 20.66 65.39 22.54 68.45 22.54C71.51 22.54 73.45 20.59 73.45 17.37C73.45 14.15 71.45 12.22 68.45 12.22ZM70.27 17.37C70.27 15.6 69.57 14.56 68.48 14.56C67.39 14.56 66.7 15.56 66.7 17.37C66.7 19.18 67.38 20.17 68.48 20.17C69.58 20.17 70.29 19.18 70.29 17.38L70.27 17.37ZM74.75 12.44H78V22.3H74.8L74.75 12.44ZM85.8 22.44C88.25 22.44 89.69 20.58 89.69 17.37L89.75 17.38C89.75 14.16 88.3 12.31 85.78 12.33C84.4796 12.2681 83.2799 13.0279 82.78 14.23H82.72V12.47H79.53V25.47H82.74V20.61H82.8C83.3175 21.7886 84.5152 22.5192 85.8 22.44ZM86.42 17.37C86.42 15.81 85.69 14.8 84.56 14.8C83.43 14.8 82.72 15.8 82.71 17.37C82.7 18.94 83.43 19.93 84.56 19.93C85.69 19.93 86.48 19 86.48 17.38L86.42 17.37ZM99.55 15.52C99.53 13.48 97.86 12.21 95.17 12.21L95.23 12.22C92.52 12.22 90.84 13.47 90.78 15.43C90.78 16.94 91.79 17.95 93.72 18.36L95.58 18.75C96.35 18.91 96.65 19 96.65 19.53C96.65 20.06 96.21 20.36 95.27 20.36C94.33 20.36 93.75 19.93 93.66 19.2H90.55C90.68 21.21 92.47 22.53 95.22 22.53C97.97 22.53 99.82 21.17 99.82 19.17C99.82 17.68 99.02 16.88 97.02 16.46L94.96 16.04C94.22 15.89 93.85 15.73 93.85 15.22C93.85 14.71 94.27 14.37 95.15 14.37C96.03 14.37 96.62 14.81 96.62 15.52H99.55ZM110.57 22.29H107.46V20.44H107.4C107.041 21.7111 105.849 22.563 104.53 22.49C103.552 22.5218 102.608 22.1348 101.933 21.4262C101.259 20.7176 100.92 19.7548 101 18.78V12.45H104.21V18.09C104.21 19.25 104.82 19.88 105.82 19.88C106.295 19.8764 106.745 19.6674 107.053 19.3068C107.362 18.9462 107.499 18.4696 107.43 18V12.45H110.63L110.57 22.29ZM115.24 12.44H112.12L112.14 22.3H115.35V16.48C115.298 16.0707 115.425 15.6588 115.699 15.3503C115.973 15.0418 116.367 14.8667 116.78 14.87C117.66 14.87 118.15 15.4 118.15 16.4V22.3H121.21V16.46C121.155 16.0553 121.279 15.6466 121.55 15.3409C121.821 15.0353 122.212 14.8633 122.62 14.87C123.53 14.87 124 15.43 124 16.43V22.3H127.23V15.61C127.296 14.724 126.981 13.8518 126.365 13.2122C125.748 12.5726 124.888 12.2262 124 12.26C122.642 12.1964 121.411 13.054 121 14.35H120.86C120.622 13.0509 119.436 12.1456 118.12 12.26C116.819 12.2335 115.665 13.0882 115.31 14.34H115.24V12.44Z" fill="white"/>
<path fill-rule="evenodd" clip-rule="evenodd" d="M30.16 10.11C30.1602 6.03639 27.6602 2.38026 23.8641 0.902517C20.068 -0.575227 15.754 0.42839 13 3.42999H0.52V29.77H26.87V17.46C28.9617 15.5891 30.1581 12.9163 30.16 10.11ZM25.09 10.11C25.094 12.0604 23.9223 13.821 22.1215 14.5702C20.3207 15.3194 18.2459 14.9095 16.8653 13.5318C15.4847 12.1541 15.0705 10.0801 15.816 8.27778C16.5614 6.47544 18.3196 5.3 20.27 5.29999C22.9281 5.29999 25.0845 7.45189 25.09 10.11ZM5.59 24.7H21.8V19.87C21.2943 19.9538 20.7826 19.9973 20.27 20C14.8102 19.9945 10.3855 15.5698 10.38 10.11C10.3844 9.57005 10.4346 9.03145 10.53 8.49999H5.59V24.7Z" fill="white"/>
</svg>
